<?xml version="1.0" encoding="UTF-8" standalone="no"?>
<!-- Created with Inkscape (http://www.inkscape.org/) -->

<svg
   xmlns:dc="http://purl.org/dc/elements/1.1/"
   xmlns:cc="http://creativecommons.org/ns#"
   xmlns:rdf="http://www.w3.org/1999/02/22-rdf-syntax-ns#"
   xmlns:svg="http://www.w3.org/2000/svg"
   xmlns="http://www.w3.org/2000/svg"
   xmlns:sodipodi="http://sodipodi.sourceforge.net/DTD/sodipodi-0.dtd"
   xmlns:inkscape="http://www.inkscape.org/namespaces/inkscape"
   version="1.1"
   width="449.99899"
   height="450"
   viewBox="0 0 449.99899 450"
   id="Ebene_1"
   xml:space="preserve"
   inkscape:version="0.91 r13725"
   sodipodi:docname="logo.svg"><sodipodi:namedview
     pagecolor="#ffffff"
     bordercolor="#666666"
     borderopacity="1"
     objecttolerance="10"
     gridtolerance="10"
     guidetolerance="10"
     inkscape:pageopacity="0"
     inkscape:pageshadow="2"
     inkscape:window-width="713"
     inkscape:window-height="480"
     id="namedview10"
     showgrid="false"
     fit-margin-top="25"
     fit-margin-left="25"
     fit-margin-right="25"
     fit-margin-bottom="25"
     inkscape:zoom="0.59"
     inkscape:cx="224.9995"
     inkscape:cy="225"
     inkscape:window-x="0"
     inkscape:window-y="25"
     inkscape:window-maximized="0"
     inkscape:current-layer="Ebene_1" /><metadata
     id="metadata51"><rdf:RDF><cc:Work
         rdf:about=""><dc:format>image/svg+xml</dc:format><dc:type
           rdf:resource="http://purl.org/dc/dcmitype/StillImage" /><dc:title></dc:title></cc:Work></rdf:RDF></metadata><defs
     id="defs49" /><g
     transform="translate(-490,-17)"
     id="g7"><path
       d="m 865,42 -300,0 c -27.614,0 -50,22.386 -50,50 l 0,300 c 0,27.614 22.386,50 50,50 l 114,0 0,-115 -68.828,0 -23.172,0 0,-83.105 c -14,-4.723 -23.095,-17.571 -23.095,-32.682 0,-19.119 15.462,-34.618 34.581,-34.618 19.119,0 34.512,15.499 34.512,34.618 0,15.034 -9.998,27.827 -22.998,32.609 l 0,60.178 69,0 0,-60.105 c -14,-4.723 -22.979,-17.571 -22.979,-32.682 0,-19.119 15.578,-34.618 34.697,-34.618 19.119,0 34.437,15.499 34.437,34.618 0,15.034 -10.155,27.827 -23.155,32.609 l 0,198.178 23,0 0,-115.266 0,-22.734 93,0 0,-60.105 c -14,-4.723 -23.243,-17.571 -23.243,-32.682 0,-19.119 15.314,-34.618 34.433,-34.618 19.119,0 34.701,15.499 34.701,34.618 0,15.034 -9.892,27.827 -22.892,32.609 l 0,59.834 0,23.344 -93,0 0,115 117,0 c 27.614,0 50,-22.386 50,-50 l 0,-300 C 915,64.386 892.614,42 865,42 Z"
       id="path9"
       style="fill:#4c86b5"
       inkscape:connector-curvature="0" /><circle
       cx="598.52899"
       cy="211.213"
       r="11.539"
       id="circle11"
       style="fill:#4c86b5" /><circle
       cx="690.84302"
       cy="211.213"
       r="11.539"
       id="circle13"
       style="fill:#4c86b5" /><circle
       cx="829.31598"
       cy="211.213"
       r="11.539"
       id="circle15"
       style="fill:#4c86b5" /></g></svg>